<?xml version="1.0" encoding="iso-8859-1"?>
<!-- Uploaded to: SVG Repo, www.svgrepo.com, Generator: SVG Repo Mixer Tools -->
<!DOCTYPE svg PUBLIC "-//W3C//DTD SVG 1.1//EN" "http://www.w3.org/Graphics/SVG/1.1/DTD/svg11.dtd">
<svg fill="#000000" height="56" width="56" version="1.1" id="Capa_1" xmlns="http://www.w3.org/2000/svg" xmlns:xlink="http://www.w3.org/1999/xlink" 
	 viewBox="0 0 385.459 385.459" xml:space="preserve">
<path d="M181.467,90.384c1.651-9.985-0.163-17.744-5.392-23.061c-6.426-6.537-17.761-9.156-31.095-7.177
	c-4.914,0.72-9.493-2.668-10.222-7.585s2.667-9.493,7.584-10.222c19.09-2.825,36.062,1.679,46.567,12.362
	c6.522,6.633,13.606,18.717,10.315,38.618c-3.677,22.244-24.891,33.428-45.406,44.242c-3.684,1.942-7.494,3.951-11.08,5.967
	c-6.69,3.762-8.365,5.774-8.752,6.38c0.112,0.438,0.541,1.615,2.184,4.034c9.055,13.33,23.824,27.584,38.115,27.607
	c4.683-0.009,9.883-1.817,16.829-5.865c17.99-10.485,29.167-30.57,29.167-52.417c0-9.555-1.487-18.242-4.42-25.819
	c-1.794-4.636,0.509-9.848,5.144-11.643c4.636-1.795,9.848,0.509,11.642,5.145c3.739,9.658,5.634,20.531,5.634,32.317
	c0,28.227-14.6,54.271-38.103,67.968c-9.841,5.736-17.826,8.3-25.891,8.314c-26.112-0.043-45.766-24.836-53.006-35.493
	c-3.169-4.666-6.587-10.951-4.882-18.201c1.946-8.271,9.57-13.548,17.519-18.017c3.798-2.136,7.717-4.202,11.507-6.2
	C162.819,112.471,179.247,103.81,181.467,90.384z M217.316,259.124c1.447,0.866,3.04,1.277,4.612,1.277
	c3.061,0,6.046-1.563,7.732-4.381c2.552-4.266,1.162-9.792-3.104-12.344c-9.313-5.571-15.551-11.713-18.539-18.256
	c-2.065-4.521-7.407-6.515-11.925-4.447c-4.521,2.064-6.513,7.404-4.448,11.926C196.176,242.821,204.813,251.646,217.316,259.124z
	 M118.684,226.916c4.971,0,9-4.029,9-9s-4.029-9-9-9c-16.049,0-29.105-13.057-29.105-29.104v-75.176
	C89.578,56.864,128.444,18,176.217,18c47.771,0,86.636,38.864,86.636,86.636v75.176c0,16.048-13.057,29.104-29.105,29.104
	c-4.971,0-9,4.029-9,9s4.029,9,9,9c25.974,0,47.105-21.131,47.105-47.104v-75.176C280.853,46.939,233.912,0,176.215,0
	C118.518,0,71.578,46.939,71.578,104.636v75.176C71.578,205.785,92.71,226.916,118.684,226.916z M206.186,367.458H151.01
	L82.385,281.5c25.28-6.606,67.8-21.451,80.201-48.601c2.065-4.521,0.074-9.86-4.447-11.926c-4.521-2.064-9.86-0.073-11.926,4.447
	c-9.324,20.414-49.759,35.245-81.552,41.743c-0.076,0.016-0.148,0.04-0.223,0.058c-0.189,0.043-0.377,0.089-0.564,0.145
	c-0.117,0.035-0.23,0.076-0.345,0.116c-0.16,0.055-0.32,0.111-0.478,0.176c-0.138,0.057-0.272,0.12-0.407,0.183
	c-0.126,0.06-0.252,0.118-0.376,0.183c-0.161,0.085-0.315,0.177-0.47,0.271c-0.094,0.058-0.189,0.112-0.281,0.173
	c-0.174,0.115-0.341,0.238-0.506,0.364c-0.053,0.041-0.11,0.075-0.163,0.117c-0.019,0.016-0.036,0.033-0.055,0.049
	c-0.158,0.129-0.309,0.266-0.457,0.404c-0.075,0.07-0.154,0.138-0.227,0.21c-0.117,0.117-0.227,0.242-0.337,0.365
	c-0.092,0.102-0.187,0.201-0.273,0.307c-0.077,0.094-0.145,0.193-0.218,0.29c-0.106,0.14-0.214,0.279-0.31,0.424
	c-0.049,0.074-0.092,0.153-0.139,0.229c-0.106,0.17-0.213,0.34-0.307,0.517c-0.046,0.087-0.085,0.178-0.128,0.266
	c-0.083,0.168-0.167,0.334-0.239,0.506c-0.06,0.144-0.108,0.293-0.161,0.44c-0.043,0.12-0.092,0.238-0.129,0.36
	c-0.063,0.203-0.112,0.41-0.161,0.618c-0.016,0.07-0.038,0.14-0.053,0.21c-0.045,0.215-0.076,0.434-0.105,0.653
	c-0.009,0.068-0.023,0.136-0.031,0.205c-0.021,0.188-0.028,0.377-0.036,0.567c-0.005,0.106-0.015,0.212-0.016,0.319
	c-0.001,0.147,0.008,0.295,0.014,0.442c0.006,0.155,0.009,0.31,0.023,0.465c0.01,0.111,0.029,0.222,0.043,0.333
	c0.025,0.193,0.051,0.385,0.088,0.576c0.005,0.027,0.007,0.053,0.012,0.08c0.019,0.093,0.047,0.182,0.069,0.273
	c0.036,0.153,0.07,0.306,0.115,0.458c0.039,0.135,0.087,0.265,0.133,0.397c0.044,0.129,0.083,0.258,0.134,0.385
	c0.102,0.258,0.215,0.509,0.338,0.753c0.021,0.042,0.047,0.082,0.069,0.123c0.112,0.213,0.231,0.422,0.359,0.624
	c0.04,0.063,0.084,0.123,0.125,0.185c0.12,0.179,0.244,0.354,0.376,0.523c0.024,0.031,0.043,0.063,0.067,0.093l80.216,100.477
	c0.014,0.018,0.031,0.033,0.045,0.05c0.199,0.246,0.409,0.482,0.633,0.705c0.077,0.077,0.159,0.143,0.238,0.216
	c0.152,0.142,0.305,0.282,0.466,0.412c0.115,0.093,0.234,0.177,0.352,0.264c0.136,0.1,0.274,0.198,0.416,0.29
	c0.124,0.08,0.25,0.155,0.378,0.229c0.15,0.087,0.303,0.169,0.458,0.248c0.122,0.061,0.244,0.122,0.368,0.177
	c0.175,0.078,0.353,0.148,0.534,0.216c0.111,0.042,0.221,0.085,0.334,0.122c0.204,0.067,0.412,0.122,0.622,0.175
	c0.097,0.024,0.192,0.053,0.29,0.074c0.229,0.049,0.464,0.084,0.699,0.116c0.082,0.011,0.164,0.029,0.247,0.038
	c0.264,0.028,0.532,0.04,0.801,0.044c0.053,0.001,0.105,0.009,0.158,0.009c0.008,0,0.016-0.001,0.024-0.001h59.477
	c4.971,0,9-4.029,9-9S211.156,367.458,206.186,367.458z M325.455,326.694c-8.146,26.897-33.761,54.829-53.741,58.604
	c-0.005,0.001-0.01,0.001-0.014,0.002c-0.537,0.101-1.087,0.156-1.646,0.156c-0.003,0-0.007,0-0.01,0s-0.007,0-0.01,0
	c-0.559,0-1.109-0.056-1.647-0.156c-0.004-0.001-0.009-0.001-0.013-0.002c-19.98-3.774-45.596-31.706-53.742-58.604
	c-5.078-16.766-2.484-31.278,7.304-40.862c7.296-7.141,16.935-11.072,27.141-11.072c7.519,0,14.758,2.152,20.968,6.149
	c6.209-3.998,13.447-6.149,20.965-6.149c10.21,0,19.849,3.932,27.142,11.072C327.94,295.416,330.533,309.928,325.455,326.694z
	 M305.558,298.693c-3.908-3.826-9.076-5.934-14.549-5.934c-5.33,0-10.399,2.014-14.274,5.671c-1.875,1.77-4.309,2.569-6.695,2.432
	c-2.383,0.135-4.813-0.664-6.686-2.431c-3.875-3.658-8.945-5.672-14.277-5.672c-5.472,0-10.639,2.107-14.55,5.936
	c-6.099,5.972-4.818,15.686-2.668,22.782c6.102,20.147,25.97,41.819,38.186,45.693c12.215-3.874,32.083-25.546,38.185-45.693
	C310.378,314.381,311.659,304.667,305.558,298.693z"/>
</svg>